# xmcd CD database file
#
# Track frame offsets:
#	150
#	35268
#	65507
#	104972
#	143012
#	176430
#	206125
#	234657
#	267588
#	293873
#
# Disc length: 4406 seconds
#
# Revision: 0
# Processed by: cddbd v1.5.1PL0 Copyright (c) Steve Scherf et al.
# Submitted via: CDex 1.51
#
DISCID=9e11340a
DTITLE=Wolfgang Lackerschmid - gently but deep
DYEAR=1996
DGENRE=Jazz
TTITLE0=No Reason For Spring
TTITLE1=Watch You Sleepin'
TTITLE2=After Hours
TTITLE3=Cabeca Feita
TTITLE4=Bells
TTITLE5=Wedding gift
TTITLE6=New World
TTITLE7=Stundenwalzer
TTITLE8=B.L.U.
TTITLE9=One More Life
EXTD=YEAR: 1996
EXTT0=
EXTT1=
EXTT2=
EXTT3=
EXTT4=
EXTT5=
EXTT6=
EXTT7=
EXTT8=
EXTT9=
PLAYORDER=
